<svg width="106" height="40" viewBox="0 0 106 40" fill="none" xmlns="http://www.w3.org/2000/svg">
<rect x="1" y="1" width="104" height="38" rx="7" fill="#27AE60"/>
<path d="M22.3118 25.5L23.152 22.9893H26.9801L27.8253 25.5H29.794L26.2045 15.3182H23.9276L20.343 25.5H22.3118ZM23.6491 21.5078L25.0263 17.4062H25.1058L26.483 21.5078H23.6491ZM33.657 25.6342C34.9695 25.6342 35.5611 24.8537 35.8445 24.2969H35.9538V25.5H37.7237V15.3182H35.919V19.1264H35.8445C35.571 18.5746 35.0092 17.7642 33.6619 17.7642C31.897 17.7642 30.5099 19.1463 30.5099 21.6918C30.5099 24.2074 31.8572 25.6342 33.657 25.6342ZM34.1591 24.1577C32.9709 24.1577 32.3445 23.1136 32.3445 21.6818C32.3445 20.2599 32.9609 19.2408 34.1591 19.2408C35.3175 19.2408 35.9538 20.2003 35.9538 21.6818C35.9538 23.1634 35.3075 24.1577 34.1591 24.1577ZM39.6415 25.5H41.4412V17.8636H39.6415V25.5ZM40.5463 16.7798C41.1181 16.7798 41.5854 16.3423 41.5854 15.8054C41.5854 15.2635 41.1181 14.826 40.5463 14.826C39.9696 14.826 39.5023 15.2635 39.5023 15.8054C39.5023 16.3423 39.9696 16.7798 40.5463 16.7798ZM46.6229 25.6491C48.5419 25.6491 49.7649 24.5107 49.8942 22.8899H48.174C48.0199 23.7102 47.4283 24.1825 46.6378 24.1825C45.5142 24.1825 44.7884 23.2429 44.7884 21.6818C44.7884 20.1406 45.5291 19.2159 46.6378 19.2159C47.5028 19.2159 48.0348 19.7727 48.174 20.5085H49.8942C49.7699 18.853 48.4773 17.7642 46.6129 17.7642C44.3757 17.7642 42.9638 19.38 42.9638 21.7116C42.9638 24.0234 44.3409 25.6491 46.6229 25.6491ZM51.372 25.5H53.1717V17.8636H51.372V25.5ZM52.2768 16.7798C52.8485 16.7798 53.3159 16.3423 53.3159 15.8054C53.3159 15.2635 52.8485 14.826 52.2768 14.826C51.7001 14.826 51.2328 15.2635 51.2328 15.8054C51.2328 16.3423 51.7001 16.7798 52.2768 16.7798ZM58.3533 25.6491C60.5906 25.6491 62.0124 24.0732 62.0124 21.7116C62.0124 19.3452 60.5906 17.7642 58.3533 17.7642C56.1161 17.7642 54.6942 19.3452 54.6942 21.7116C54.6942 24.0732 56.1161 25.6491 58.3533 25.6491ZM58.3633 24.2074C57.1254 24.2074 56.5188 23.1037 56.5188 21.7067C56.5188 20.3097 57.1254 19.1911 58.3633 19.1911C59.5813 19.1911 60.1879 20.3097 60.1879 21.7067C60.1879 23.1037 59.5813 24.2074 58.3633 24.2074ZM65.3397 21.0256C65.3397 19.9219 66.0059 19.2855 66.9554 19.2855C67.8851 19.2855 68.4419 19.897 68.4419 20.9162V25.5H70.2417V20.6378C70.2466 18.8082 69.2026 17.7642 67.6266 17.7642C66.4831 17.7642 65.6976 18.3111 65.3496 19.1612H65.2601V17.8636H63.54V25.5H65.3397V21.0256ZM74.2686 25.6541C75.4668 25.6541 76.1827 25.0923 76.5108 24.451H76.5705V25.5H78.3006V20.3892C78.3006 18.3707 76.655 17.7642 75.1983 17.7642C73.5925 17.7642 72.3596 18.4801 71.9618 19.8722L73.6422 20.1108C73.8212 19.5888 74.3283 19.1413 75.2083 19.1413C76.0435 19.1413 76.5009 19.5689 76.5009 20.3196V20.3494C76.5009 20.8665 75.959 20.8913 74.6117 21.0355C73.1301 21.1946 71.7132 21.6371 71.7132 23.3572C71.7132 24.8587 72.812 25.6541 74.2686 25.6541ZM74.736 24.3317C73.9853 24.3317 73.4483 23.9886 73.4483 23.3274C73.4483 22.6364 74.0499 22.348 74.8553 22.2337C75.3276 22.169 76.2722 22.0497 76.5059 21.8608V22.7607C76.5059 23.6108 75.8198 24.3317 74.736 24.3317ZM80.1103 25.5H81.91V21.0107C81.91 20.0412 82.6408 19.3551 83.6301 19.3551C83.9334 19.3551 84.3113 19.4098 84.4654 19.4595V17.804C84.3013 17.7741 84.0179 17.7543 83.8191 17.7543C82.9441 17.7543 82.2132 18.2514 81.9348 19.1364H81.8553V17.8636H80.1103V25.5Z" fill="white"/>
<rect x="1" y="1" width="104" height="38" rx="7" stroke="#27AE60" stroke-width="2"/>
</svg>
